<svg viewBox="0 0 300 500" xmlns="http://www.w3.org/2000/svg">
<defs>
  <linearGradient id="ga" x1="0%" y1="0%" x2="100%" y2="100%">
    <stop offset="0%" stop-color="#f0d585"/><stop offset="50%" stop-color="#c9a227"/><stop offset="100%" stop-color="#8a6a1d"/>
  </linearGradient>
</defs>
<g fill="none" stroke="url(#ga)" stroke-width="4" opacity=".95">
  <path d="M20 480 V150 A130 130 0 0 1 280 150 V480" />
</g>
<g fill="none" stroke="url(#ga)" stroke-width="1.4" opacity=".85">
  <path d="M12 480 V146 A138 138 0 0 1 288 146 V480" />
</g>
<g fill="url(#ga)" opacity=".95">
  <circle cx="150" cy="16" r="7"/>
  <ellipse cx="128" cy="24" rx="12" ry="6" transform="rotate(-25 128 24)"/>
  <ellipse cx="172" cy="24" rx="12" ry="6" transform="rotate(25 172 24)"/>
  <ellipse cx="108" cy="38" rx="10" ry="5" transform="rotate(-45 108 38)"/>
  <ellipse cx="192" cy="38" rx="10" ry="5" transform="rotate(45 192 38)"/>
  <circle cx="150" cy="16" r="3" fill="#fff6d8"/>
</g>
<g fill="none" stroke="url(#ga)" stroke-width="1.2" opacity=".8">
  <path d="M20 480 q-10 -30 4 -55" />
  <path d="M280 480 q10 -30 -4 -55" />
</g>
</svg>
